<svg xmlns="http://www.w3.org/2000/svg" id="Layer_1" data-name="Layer 1" viewBox="489.69 421.68 940.61 236.94">
  <defs>
    <style>
      .cls-1 {
        fill: #f2f2f2;
      }
    </style>
  </defs>
  <g>
    <path class="cls-1" d="M974.57,478.92v-43.26c0-5.64,4.57-10.21,10.35-10.21s10.35,4.57,10.35,10.21v43.13c0,16.12,9.14,21.63,18.94,21.63s18.94-5.78,18.94-21.63v-43.67c0-5.37,5.11-9.67,10.61-9.67s9.94,4.3,9.94,9.67v43.8c0,26.87-19.35,39.77-39.63,39.77s-39.5-12.9-39.5-39.77Z"/>
    <path class="cls-1" d="M1068.75,508.07v-42.05c0-5.51,4.43-9.94,9.94-9.94,4.84,0,9,3.63,9.81,8.33,4.57-5.51,10.61-9,18.14-9,10.75,0,20.42,7.12,20.42,22.03v30.63c0,5.51-4.57,10.08-9.94,10.08s-9.94-4.57-9.94-10.08v-26.06c0-5.51-2.15-9.67-8.19-9.67-4.3,0-7.93,2.55-10.35,7.39v28.35c0,5.51-4.57,10.08-9.94,10.08s-9.94-4.57-9.94-10.08Z"/>
    <path class="cls-1" d="M1151.51,425.71c5.91,0,10.48,4.57,10.48,10.35s-4.57,10.35-10.48,10.35-10.48-4.43-10.48-10.35,4.57-10.35,10.48-10.35ZM1141.57,508.07v-42.05c0-5.37,4.57-9.94,9.94-9.94s9.94,4.57,9.94,9.94v42.05c0,5.51-4.43,10.08-9.94,10.08s-9.94-4.57-9.94-10.08Z"/>
    <path class="cls-1" d="M1176.5,508.07v-76.31c0-5.51,4.43-10.08,9.94-10.08s9.94,4.57,9.94,10.08v48.1l24.05-21.09c2.01-1.88,4.43-2.69,6.72-2.69,4.7,0,8.87,4.17,8.87,9,0,2.55-1.07,5.24-3.9,7.66l-12.76,11.02,14.38,17.47c2.69,3.23,3.49,5.37,3.49,7.52,0,5.64-4.43,9.41-9.81,9.41-3.09,0-5.91-1.61-8.06-4.3l-15.05-19.35c-2.82,1.75-5.51,3.36-7.93,4.84v8.73c0,5.51-4.57,10.08-9.94,10.08s-9.94-4.57-9.94-10.08Z"/>
    <path class="cls-1" d="M1280.75,510.76c-5.37,4.84-11.82,8.06-18.94,8.06-11.02,0-18.14-7.79-18.14-17.2,0-8.73,5.24-13.7,12.63-16.66,7.12-2.82,16.39-3.49,24.18-4.03v-1.75c0-5.11-2.96-6.85-9.81-6.85-4.17,0-6.99.81-8.6,1.21-2.42.67-4.17.94-5.11.94-4.7,0-8.2-3.36-8.2-7.66,0-2.82,1.21-5.91,5.11-7.66,4.84-2.15,12.76-3.76,19.62-3.76,15.72,0,25.8,7.52,25.8,22.3v30.9c0,5.24-4.17,9.54-9.41,9.54-4.43,0-8.19-3.23-9.14-7.39ZM1268.39,503.64c4.03,0,8.33-1.88,12.09-4.3v-7.26c-3.23.4-6.31.81-9.41,1.48-6.05,1.21-8.46,2.82-8.46,5.64s2.15,4.43,5.78,4.43Z"/>
    <path class="cls-1" d="M1314.07,508.07v-76.31c0-5.51,4.43-10.08,9.81-10.08s10.08,4.57,10.08,10.08v76.31c0,5.51-4.57,10.08-9.94,10.08s-9.94-4.57-9.94-10.08Z"/>
    <path class="cls-1" d="M975.24,647.6v-72.15c0-5.64,4.43-10.21,10.21-10.21s10.48,4.57,10.48,10.21v28.48l33.32-35.33c2.42-2.55,5.24-3.36,7.52-3.36,5.37,0,9.54,4.3,9.54,9.4,0,2.55-.94,4.97-4.03,8.06l-21.23,21.63,26.6,37.08c1.34,1.88,2.42,4.16,2.42,6.58,0,5.51-4.57,9.94-10.08,9.94-2.96,0-6.31-1.21-8.06-3.76l-24.86-35.74-11.15,11.42v17.73c0,5.78-4.7,10.35-10.48,10.35s-10.21-4.57-10.21-10.35Z"/>
    <path class="cls-1" d="M1060.28,647.87v-76.31c0-5.51,4.43-10.08,9.81-10.08s10.08,4.57,10.08,10.08v76.31c0,5.51-4.57,10.08-9.94,10.08s-9.94-4.57-9.94-10.08Z"/>
    <path class="cls-1" d="M1105.16,565.51c5.91,0,10.48,4.57,10.48,10.35s-4.57,10.35-10.48,10.35-10.48-4.43-10.48-10.35,4.57-10.35,10.48-10.35ZM1095.21,647.87v-42.05c0-5.37,4.57-9.94,9.94-9.94s9.94,4.57,9.94,9.94v42.05c0,5.51-4.43,10.08-9.94,10.08s-9.94-4.57-9.94-10.08Z"/>
    <path class="cls-1" d="M1129.88,647.87v-42.05c0-5.51,4.43-9.94,9.94-9.94,4.84,0,9,3.63,9.81,8.33,4.57-5.51,10.61-9,18.14-9,10.75,0,20.42,7.12,20.42,22.03v30.63c0,5.51-4.57,10.08-9.94,10.08s-9.94-4.57-9.94-10.08v-26.06c0-5.51-2.15-9.67-8.2-9.67-4.3,0-7.93,2.55-10.35,7.39v28.35c0,5.51-4.57,10.08-9.94,10.08s-9.94-4.57-9.94-10.08Z"/>
    <path class="cls-1" d="M1212.64,565.51c5.91,0,10.48,4.57,10.48,10.35s-4.57,10.35-10.48,10.35-10.48-4.43-10.48-10.35,4.57-10.35,10.48-10.35ZM1202.69,647.87v-42.05c0-5.37,4.57-9.94,9.94-9.94s9.94,4.57,9.94,9.94v42.05c0,5.51-4.43,10.08-9.94,10.08s-9.94-4.57-9.94-10.08Z"/>
    <path class="cls-1" d="M1237.62,647.87v-76.31c0-5.51,4.43-10.08,9.94-10.08s9.94,4.57,9.94,10.08v48.1l24.05-21.09c2.01-1.88,4.43-2.69,6.72-2.69,4.7,0,8.87,4.17,8.87,9,0,2.55-1.07,5.24-3.9,7.66l-12.76,11.02,14.38,17.47c2.69,3.23,3.49,5.37,3.49,7.52,0,5.64-4.43,9.41-9.81,9.41-3.09,0-5.91-1.61-8.06-4.3l-15.05-19.35c-2.82,1.75-5.51,3.36-7.93,4.84v8.73c0,5.51-4.57,10.08-9.94,10.08s-9.94-4.57-9.94-10.08Z"/>
    <path class="cls-1" d="M1341.88,650.56c-5.37,4.84-11.82,8.06-18.94,8.06-11.02,0-18.14-7.79-18.14-17.2,0-8.73,5.24-13.7,12.63-16.66,7.12-2.82,16.39-3.49,24.18-4.03v-1.75c0-5.11-2.96-6.85-9.81-6.85-4.17,0-6.99.81-8.6,1.21-2.42.67-4.17.94-5.11.94-4.7,0-8.2-3.36-8.2-7.66,0-2.82,1.21-5.91,5.11-7.66,4.84-2.15,12.76-3.76,19.62-3.76,15.72,0,25.8,7.52,25.8,22.3v30.9c0,5.24-4.17,9.54-9.41,9.54-4.43,0-8.19-3.23-9.14-7.39ZM1329.52,643.43c4.03,0,8.33-1.88,12.09-4.3v-7.26c-3.23.4-6.31.81-9.41,1.48-6.05,1.21-8.46,2.82-8.46,5.64s2.15,4.43,5.78,4.43Z"/>
  </g>
  <g>
    <path class="cls-1" d="M664.39,450.76v49.29c0,1.82-2.39,2.49-3.34.94-2.88-4.72-5.61-9.18-8.03-13.14l-5.18-8.49c-.59-.96-1.9-1.15-2.74-.4l-4.65,4.16c-7.57,6.77-16.16,14.63-24.67,22.45-1.16,1.06-3.02.24-3.02-1.33v-53.46c0-14.1,11.41-25.48,25.83-25.48s25.8,11.38,25.8,25.48Z"/>
    <g>
      <path class="cls-1" d="M780.68,544.35c-6.05-16.29-13.26-35.66-20.51-55.04-.8-2.14-1.21-4.41-1.21-6.7v-33.19c0-13.42,12.76-24.14,26.51-24.14s24.81,10.72,24.81,24.14v48.53c0,8.51,10.4,12.64,16.24,6.45l66.07-70.08c6.02-6.38,13.08-8.38,18.8-8.38,13.39,0,23.77,10.72,23.77,23.48,0,6.35-2.34,12.39-10.06,20.11l-47.45,48.34-.03.03c-2.41,2.46-5.72,3.85-9.16,3.84-21.45-.04-42.53-.06-63.19-.06h-6.47c-2.61,0-5.01,1.47-6.2,3.79h0c-.2.37-.62,1.3-8.5,18.97-.68,1.51-2.85,1.46-3.42-.1Z"/>
      <path class="cls-1" d="M944.57,632.5c0,13.76-11.39,24.83-25.17,24.83-7.38,0-15.76-3.01-20.11-9.39l-55.54-79.87c-3.37-4.84-10.33-5.42-14.45-1.19l-16.3,16.69c-1.72,1.76-2.68,4.11-2.68,6.57v43.7c0,13.42-12.75,24.15-26.51,24.15-6.91,0-13.16-2.73-17.65-7.14-2.81-2.77-6.98-3.47-10.59-1.88-13.66,6.05-28.84,9.02-44.21,9.02-50.98,0-98.6-32.19-98.6-99.26v-19.4c0-.72.32-1.4.88-1.86l13.42-11c3.67-3,7.34-6.01,11-9.03,1.16-.96,2.9-.62,3.63.69,7.04,12.76,15.04,27.23,22.23,40.2.32.58.49,1.23.5,1.89.68,38.82,23.17,52.16,47.27,52.16,18.45,0,37.09-8.91,44.24-31.91.36-1.16,2-1.18,2.41-.03,2.27,6.35,4.49,12.52,6.61,18.4l12.96,36.1c.39,1.08,1.89,1.14,2.36.1l34.79-76.85c.71-1.57,2.27-2.58,3.99-2.58,23.35-.01,47.23-.04,71.57-.1,2.79,0,5.41,1.33,7.03,3.6l40.86,56.97c3.35,4.69,6.06,10.38,6.06,16.42Z"/>
    </g>
    <path class="cls-1" d="M1430.3,538.65c-180,7.16-360.13,9.37-540.26,9.85-25.15.07-50.32.1-75.47.11-1.75,0-3.33,1.02-4.05,2.61-5.64,12.45-20.79,45.93-20.79,45.93l-8.39,18.53c-.59,1.31-2.48,1.23-2.97-.12l-6.84-19.08c-3.86-10.73-8.16-22.73-12.62-35.19-9.36-26.19-19.4-54.39-27.4-76.98l-4.71-13.37c-.45-1.29-2.25-1.36-2.8-.11-6.88,15.62-14.27,32.38-14.27,32.38-3.71,8.34-22.88,51.48-29,65.25-.58,1.31-2.41,1.4-3.11.14-3.96-7.12-8.52-15.34-13.23-23.87-7.11-12.84-14.57-26.36-20.88-37.77-.61-1.11-2.07-1.38-3.05-.58-5.94,4.9-11.87,9.81-17.84,14.68l-9.87,8.09-14.96,12.26-1.13.93-1.27-.03c-34.04-.92-71.61-2.23-105.7-3.66,33.66-1.42,70.57-2.7,104.25-3.62,5.89-5.32,12.29-11.2,18.81-17.19,10.42-9.58,21.14-19.48,30.56-27.92.93-.83,2.39-.62,3.04.45,5.05,8.25,11.52,18.86,18.03,29.53,3.82,6.27,7.66,12.57,11.22,18.42.75,1.23,2.57,1.08,3.11-.25,14.4-35.5,33.28-81.79,46.59-114.2.52-1.26,2.31-1.23,2.79.05l6.42,17.06c7.24,19.18,15.97,42.46,24.42,65.1,6.12,16.43,12.11,32.52,17.28,46.46,0,0,1.77,4.78,4.04,10.92.5,1.35,2.38,1.42,2.97.1,5.68-12.71,11.84-26.53,14.38-32.2.72-1.61,2.32-2.64,4.09-2.65h3.57c23.58,0,47.15.02,70.73.06,184.8.4,369.61,2.54,554.29,9.89Z"/>
  </g>
</svg>